<svg version="1.2" xmlns="http://www.w3.org/2000/svg" viewBox="0 0 677 677" width="28" height="28">
	<title>file</title>
	<style>
		.s0 { opacity: 1;fill: #000000 } 
	</style>
	<path id="Path 0" fill-rule="evenodd" class="s0" d="m234 3.1c164.3-0.1 190.3 0.1 195.8 1.4 3.4 0.8 8.6 2.7 11.4 4.1 2.9 1.5 8 5.4 11.4 8.8 3.9 3.9 7.2 8.4 9.1 12.6 1.7 3.6 3.6 8.9 4.2 11.8 0.8 3.6 1.1 37.6 1.1 217.2h82.2c69.3 0 83.3 0.3 88.5 1.5 3.5 0.8 8.7 2.7 11.5 4.1 2.9 1.5 8 5.4 11.4 8.8 3.9 3.9 7.2 8.4 9.1 12.6 1.7 3.6 3.6 8.9 4.2 11.8 0.8 3.7 1.1 53.5 1.1 170 0 146.3-0.2 165.4-1.6 170.7-0.8 3.3-2.7 8.3-4.2 11-1.5 2.8-5.4 7.7-8.7 11.1-3.3 3.4-8.3 7.2-11 8.7-2.8 1.4-7.7 3.2-11 4.1-5.3 1.4-22.4 1.6-155.5 1.6-132.6 0-150.2-0.2-155.5-1.6-3.3-0.8-8.6-3-11.9-4.7-3.2-1.8-8.2-5.7-11.1-8.7-3.1-3.2-6.6-8.4-8.6-12.5-1.8-3.9-3.7-10-5.4-20.5h-127.5v17.5c0 12.1-0.4 18.5-1.3 20.8-0.7 1.7-3.1 4.6-9 9.2h-75.4l-3.8-3c-2.1-1.6-4.5-4.5-5.2-6.2-0.9-2.3-1.3-8.7-1.3-38.3h-10.8c-6.3 0-13-0.6-16.5-1.5-3.1-0.8-8.1-2.7-11-4.1-2.8-1.5-7.9-5.4-11.3-8.8-3.9-3.9-7.2-8.4-9.1-12.6-1.7-3.6-3.6-8.9-4.2-11.7-0.8-3.8-1.1-81.7-1.1-274 0-254 0.1-269.2 1.8-275.3 0.9-3.6 3.3-9.1 5.2-12.3 1.9-3.2 5.5-7.8 8-10.1 2.5-2.3 6.7-5.5 9.5-7.1 2.7-1.6 7.7-3.7 11-4.7 5.6-1.5 20.1-1.7 195.5-1.7zm-195.1 36.9c-1 1.4-2.2 3.7-2.8 5.3-0.8 1.8-1.1 24.2-1.1 68.2v65.5h400c-0.5-133.4-0.5-133.9-2.6-136.7-1.2-1.5-3.4-3.7-4.8-4.8-2.7-2-4.5-2-191.4-2.2-150-0.2-189.4 0-192.2 1-1.9 0.7-4.2 2.4-5.1 3.7zm-3.4 544.9c3.3 4.3 5.5 6.5 6.9 7.6 2.7 2 4.5 2 125.7 2.3l122.9 0.2c0-276.8 0.2-294.2 1.6-299.5 0.8-3.3 3-8.7 4.7-11.9 1.8-3.3 5.8-8.3 9.2-11.4 3.3-3 8.1-6.5 10.7-7.8 2.7-1.3 7.6-3.1 11-3.9 5.1-1.2 15.6-1.5 56.5-1.5h50.3v-48h-400zm290.8-288c-1.3 1.7-2.6 4.6-2.9 6.4-0.2 1.8-0.4 76.7-0.2 166.4l0.3 163.2c3.3 4.4 5.4 6.5 6.9 7.6 2.7 2 4.3 2 152.6 2 148.3 0 149.9 0 152.5-2 1.5-1.1 3.7-3.2 4.9-4.8l2.1-2.8v-331.7c-3.3-4.4-5.5-6.6-7-7.7-2.6-1.9-4.4-2-151.3-2.2-122-0.1-149.3 0.1-152.1 1.1-1.9 0.8-4.5 2.8-5.8 4.5zm-227.3 346.1h32v-16h-32zm-0.1-576c3.1 0 5.7 0.7 8 2.3 1.9 1.2 4.3 3.5 5.5 5.1 2 2.7 2.1 3.9 2.1 32.6 0 28.8-0.1 30-2.1 32.7-1.2 1.6-3.6 3.9-5.5 5.1-2.3 1.6-4.9 2.3-7.9 2.3-3 0-5.6-0.7-7.9-2.3-1.9-1.2-4.4-3.5-5.5-5.1-2-2.7-2.1-3.9-2.1-32.7 0-28.7 0.1-29.9 2.1-32.6 1.1-1.6 3.6-3.9 5.4-5.1q3.3-2.3 7.9-2.3zm0 176c3.1 0 5.7 0.7 8 2.3 1.9 1.2 4.3 3.5 5.5 5.1 2 2.7 2.1 3.8 2.1 40.6 0 36.9-0.1 38-2.1 40.7-1.2 1.6-3.6 3.9-5.5 5.1-2.3 1.6-4.9 2.3-7.9 2.3-3 0-5.6-0.7-7.9-2.3-1.9-1.2-4.4-3.5-5.5-5.1-2.1-2.7-2.1-3.8-2.1-40.7 0-36.8 0-37.9 2.1-40.6 1.1-1.6 3.6-3.9 5.4-5.1q3.3-2.3 7.9-2.3zm431.8 80.1c1.8 0 4.9 0.7 6.9 1.7 2.1 1 4.8 3 6 4.5 1.3 1.5 2.7 4.4 3 6.5 0.3 2.1 0.3 5.3-0.1 7.2-0.4 2.2-2.2 5-4.6 7.3-2.5 2.4-5.2 4-7.7 4.4-2 0.3-5.2 0.3-7 0-1.8-0.4-5-2.3-7.1-4.4-2.7-2.6-4.1-5-4.6-7.8-0.4-2.2-0.5-5.4-0.1-7.2 0.3-1.8 1.6-4.5 2.9-6 1.3-1.5 3.9-3.5 5.8-4.5 1.9-0.9 4.8-1.7 6.6-1.7zm64 0c1.8 0 4.9 0.7 6.9 1.7 2.1 1 4.8 3 6 4.5 1.3 1.5 2.7 4.4 3 6.5 0.3 2.1 0.3 5.3-0.1 7.2-0.4 2.2-2.2 5-4.6 7.3-2.5 2.4-5.2 4-7.7 4.4-2 0.3-5.2 0.3-7 0-1.8-0.4-5-2.3-7.1-4.4-2.7-2.6-4.1-5-4.6-7.8-0.4-2.2-0.5-5.4-0.1-7.2 0.3-1.8 1.6-4.5 2.9-6 1.3-1.5 3.9-3.5 5.8-4.5 1.9-0.9 4.8-1.7 6.6-1.7zm-112.7 64c5.2 0 13.8 0.7 19 1.6 5.2 0.8 13.1 2.9 17.5 4.5 4.4 1.6 10.5 4.3 13.5 6 3 1.7 8 5 11 7.3 3 2.3 8.3 7.3 11.7 11.1 3.4 3.8 8.2 10.3 10.5 14.4 2.3 4.2 5.2 10 6.5 13 1.2 3.1 2.9 8.2 3.7 11.5 0.9 3.3 2.1 9.9 2.7 14.5 0.7 4.9 0.9 12.8 0.5 18.5-0.3 5.5-1.5 13.6-2.7 18-1.1 4.4-3.6 11.6-5.5 16-1.9 4.4-4.9 10.5-6.7 13.4-1.8 3-6.4 8.8-10.2 12.9-3.9 4.1-9.7 9.4-13 11.8-3.3 2.3-8.7 5.6-12 7.2-3.3 1.7-9.6 4.1-14 5.5-4.4 1.4-11.5 3.1-15.8 3.7-4.2 0.6-11.3 1-15.7 1-4.4 0-11.5-0.4-15.8-1-4.2-0.6-11.3-2.3-15.7-3.7-4.4-1.4-10.7-3.8-14-5.5-3.3-1.7-8-4.4-10.5-6.1-2.5-1.7-7.4-5.8-10.9-9.1-3.5-3.3-8.3-8.8-10.6-12.1-2.4-3.3-5.8-9.1-7.8-13-1.9-3.8-4.4-9.9-5.5-13.5-1.1-3.5-2.7-8.9-3.4-12-0.8-3.5-1.3-11.1-1.2-21 0.1-12.1 0.5-17.1 2.1-23 1.1-4.1 3.1-10.2 4.4-13.5 1.3-3.3 4.4-9.5 6.9-13.9 3.1-5.6 7.4-10.9 14-17.5 7-7.1 11.7-10.8 18-14.3 4.7-2.6 11.9-5.9 16-7.2 4.1-1.4 11.1-3.2 15.5-3.9 4.4-0.8 12.3-1.5 17.5-1.6zm-30 38.7c-5.4 2.5-9.4 5.4-14 10.1-3.6 3.7-8 9.1-9.7 12.1-1.8 3.1-4.4 9.1-5.9 13.5-2.5 7.3-2.8 9.4-2.8 21.5 0 12 0.3 14.5 2.7 21.5 1.5 4.4 4 10.3 5.5 13 1.6 2.8 5.4 7.7 8.4 11 3.1 3.3 8.4 7.7 11.9 9.8 3.5 2.1 9.5 4.8 13.4 6 5.9 1.9 9.3 2.2 21.5 2.2 12.2 0 15.6-0.3 21.5-2.2 3.8-1.2 9.7-3.8 13-5.8 3.3-2 7.9-5.5 10.3-7.8 2.3-2.3 6-6.9 8.2-10.2 2.1-3.3 5-8.9 6.3-12.5 1.4-3.5 3-10.1 3.7-14.5 0.8-4.7 1-11 0.7-15.5-0.4-4.1-1.4-10.2-2.2-13.5-0.9-3.3-3.3-9.3-5.3-13.4-2.6-5.2-5.9-9.7-10.7-14.6-5.2-5.2-9-8.1-14.5-10.7-4.1-2-11-4.3-15.3-5.2-4.2-0.8-11.7-1.5-16.5-1.5-4.8 0.1-11.9 0.8-15.7 1.6-3.9 0.8-10.4 3.1-14.5 5.1z"/>
</svg>