<svg version="1.2" xmlns="http://www.w3.org/2000/svg" viewBox="0 0 512 512" width="24" height="24">
	<title>file</title>
	<style>
		.s0 { opacity: .96;fill: #000000 } 
	</style>
	<path id="Path 0" fill-rule="evenodd" class="s0" d="m356 46c1.9 0 6.8 4.3 20.2 17.8 15.1 15 17.8 18.2 17.8 20.7 0 2.2-1 4.1-8 11l17.5 17.5h8.5c4.7 0 11.2 0.7 14.5 1.6 3.3 0.8 8.7 3 11.9 4.7 3.3 1.8 8.3 5.3 11 7.8 2.8 2.6 6.8 7.5 8.9 11 2.1 3.5 4.7 9.3 5.8 12.9 1.4 4.4 2.2 9.6 2.5 25.5l6 7c3.3 3.8 8.3 10.4 11 14.5 2.8 4.1 7.1 11.1 9.6 15.5 2.4 4.4 6.5 13.2 9 19.5 2.6 6.3 5.9 15.2 7.5 19.6 2.4 7.1 2.6 8.5 1.5 10.8-0.7 1.5-2.4 2.9-4 3.3-1.9 0.4-5.6-0.4-12.2-2.7-5.2-1.8-13.3-4.8-18-6.7-4.7-1.9-12.8-5.8-18-8.5-5.2-2.8-12.4-7.1-16-9.6-3.6-2.5-10-7.5-22.2-17.7l-5.7 0.3c-3.1 0.2-8.5-0.1-18.6-1.9l-68.5 68.6 72 72c65.7 65.7 72 72.3 72 75.3 0 2.8-1.6 4.8-13.1 16-7.2 7-13.8 13.1-14.7 13.5-1 0.5-10.2-0.8-23-3.2-11.6-2.3-22-4.5-23-5-0.9-0.5-6.2-8.6-11.7-18-6.7-11.5-10.7-17.3-12-17.6-1.1-0.2-9.6-1.8-19-3.5-9.4-1.8-17.7-3.5-18.5-4-0.8-0.5-5.8-8.3-11-17.5-5.3-9.4-10.4-17.1-11.5-17.6-1.1-0.5-9.6-2.3-19-4-9.4-1.7-18-3.7-19.3-4.5-1.2-0.8-4.3-5.2-11.7-18.3l-54.5 54.4c-44.2 44.1-55.4 54.8-59.5 56.7-3.6 1.6-6.8 2.2-11.5 2.2-4.2 0-8.1-0.7-11-2-2.5-1.1-6.3-3.8-8.4-6-2.2-2.1-4.9-5.9-6-8.4q-2-4.5-2-11c0-4.6 0.7-8 2.3-11.5 1.8-4.1 11.2-14 50.1-53 26.4-26.4 48-48.3 48-48.7 0-0.5-4-7.9-17.9-32.3l-19.8-3.7c-14.8-2.8-20.2-4.2-21.3-5.6-0.8-1-5.7-9.1-10.8-18-5-8.9-9.5-16.2-10-16.2-0.4 0-8.1-1.4-17.2-3.1-15.9-3-16.7-3.1-21-1.5-2.5 0.9-7.2 1.6-10.5 1.6-3.8 0-7.6-0.8-10.5-2.1-3.3-1.5-12.9-10.4-36.8-34.2-28.4-28.3-32.5-32.8-34.2-37.4-1.1-2.9-2-7.3-2-9.8 0-2.5 0.9-6.9 2-9.7 1.8-4.8 6.9-10.2 48.7-51.9 38.4-38.2 47.6-47 51.3-48.4 3.2-1.2 6.5-1.6 11.5-1.3 5.2 0.3 8.1 1.1 11.5 3 2.5 1.5 18.3 16.5 35.2 33.5 20.2 20.3 31.4 32.3 32.9 35.3 1.8 3.4 2.3 6.2 2.4 11.5 0 5.3-0.6 8.2-4.8 17l97.8 97.5 69.4-69.5-0.4-21.5-17-17-4 4c-2.9 2.9-4.8 4-7 4-2.5 0-5.7-2.7-20.7-17.7-14.4-14.4-17.7-18.3-17.6-20.3 0.2-1.8 9.2-11.4 31.3-33.7 24.2-24.4 31.6-31.3 33.5-31.3zm-48.5 65l22 22 48.5-48.5c-16.7-16.7-21.7-21.5-22-21.5-0.3 0-11.3 10.8-24.5 24zm-248.3 0.2c-39.1 39.1-44.4 44.8-45.1 48.3-0.6 2.5-0.5 5.4 0.1 7.5 0.7 2.7 8.2 10.7 30.6 33.3 16.3 16.3 31.2 30.4 32.9 31.2 1.8 0.8 4.8 1.5 6.5 1.5 1.8 0 4.6-0.8 6.3-1.8 1.6-1 20.7-19.4 42.4-40.8 21.7-21.4 41.6-41.5 44.2-44.6 4.3-5.1 4.9-6.4 4.9-10.3 0-2.5-0.7-5.7-1.4-7.2-0.8-1.6-14.9-16.2-31.3-32.5-16.4-16.3-31-30.2-32.6-30.7-1.5-0.6-3.7-1.1-5-1.1-1.2 0.1-3.6 0.7-5.2 1.4-1.7 0.8-22.9 21.4-47.3 45.8zm291.3 20.8c14.9 15.1 19.7 20.4 20.3 21.5 0.5 1.2 0.7 5.6 0.4 10.5-0.4 6.8-0.1 9.9 1.6 15.5 1.2 4.3 3.6 9.1 6.1 12.5 2.3 3 6.7 7.2 9.9 9.3 3.1 2.1 8.2 4.5 11.2 5.4 3.5 1 8.7 1.5 14.5 1.3 4.9-0.1 9.6-0.2 10.2-0.1 0.7 0 4.8 3.2 9 6.9 4.3 3.7 10.9 9 14.8 11.8 3.8 2.8 11.3 7.3 16.5 10.1 5.2 2.8 13.7 6.8 18.7 8.9 5.1 2.2 9.5 3.7 9.8 3.4 0.3-0.3-1.6-5.7-4.2-12-2.6-6.3-6.9-15.3-9.6-20-2.7-4.7-7-11.4-9.6-15-2.5-3.5-6.6-8.7-9.1-11.5-2.5-2.7-5.4-6.1-6.5-7.4-1.8-2-2-3.8-2-14.5 0-12-0.1-12.3-3.7-19.6-2.3-4.9-5.3-9.1-8.5-11.9-2.6-2.5-7.7-5.9-11.3-7.5-6.1-2.9-7.2-3.1-18.7-3.1h-12.3c-15.9-15.9-20.7-20.5-21-20.5-0.3 0-6.4 5.9-13.5 13zm-239.5 99.3c0.3 0.2 7 1.6 15 3.1 8 1.4 15 3.2 15.7 3.9 0.6 0.7 5.4 8.6 10.6 17.7l9.5 16.5c26.9 5.2 36 7.1 37.7 7.6 2.3 0.6 4 2.7 7.6 8.6 2.5 4.3 7 12 10 17.1l5.4 9.2 56.5-56.5c-75.6-75.6-97.8-97.5-98-97.5-0.3 0-16.3 15.7-35.5 35-19.3 19.2-34.8 35.1-34.5 35.3zm15.6 199.7c-0.9 1.4-1.6 4.5-1.6 7 0 2.7 0.8 5.8 2 7.8 1.1 1.7 3.3 3.9 5 4.7 1.6 0.8 4.8 1.5 7 1.5 2.2 0 5.2-0.6 6.7-1.4 1.5-0.8 55.6-54.3 120.1-118.8l117.3-117.3c-5.9-4.6-9.1-7.6-11-9.5-1.8-1.9-4.4-5.2-5.7-7.2-1.4-2.1-2.8-3.8-3.2-3.8-0.4 0-53.4 52.8-117.8 117.3-64.5 64.4-117.9 118.3-118.8 119.7zm147.5-88.5c6.9 11.6 9 15.4 9.1 15.8 0.2 0.4 8.8 2.4 19.3 4.3 10.4 2 19.9 4.2 21 4.9 1.1 0.7 6.2 8.6 11.4 17.6 5.1 9 9.6 16.6 9.8 16.9 0.3 0.3 9.2 2.1 19.8 4 10.6 1.9 19.9 4.1 20.6 4.8 0.8 0.7 5.7 8.8 11 18l9.7 16.7 33.7 6.4c12.6-11.9 16.3-15.6 16.3-15.9 0.1-0.3-30.8-31.4-68.6-69.2l-68.7-68.8zm-145.7-236.5c2.2 0 6.1 1 8.5 2.1 2.5 1.2 7.5 5.1 11.2 8.7 3.7 3.7 7.4 8.4 8.3 10.5 0.8 2 1.5 6.1 1.5 9 0 3.1-0.8 6.8-1.9 9.2-1.2 2.5-12.9 14.9-30.3 32.2-18.9 18.9-29.5 28.7-32 29.8-2.1 0.8-5.8 1.5-8.3 1.5-2.4 0-6.1-0.7-8.2-1.6-2.1-0.9-6.8-4.6-10.6-8.2-3.8-3.7-7.8-8.5-8.9-10.7-1.4-2.6-2.1-5.9-2.1-9.5 0-3.3 0.7-6.9 1.8-9 1-1.9 14.2-16 29.4-31.4 21.1-21.2 28.8-28.4 32.6-30.2 2.8-1.3 6.8-2.4 9-2.4zm-33.2 42.5c-23.3 24-26.2 27.4-26.2 30.3-0.1 2.6 1.1 4.4 5.7 9.2 3.2 3.3 6.9 6.5 8.2 7.1 1.9 0.8 3.3 0.7 5.5-0.4 1.7-0.9 15.1-13.6 29.8-28.4 23.9-24 26.7-27.1 26.7-30 0-2.6-1.1-4.5-5.7-9.3-3.2-3.4-7-6.5-8.4-6.9-1.7-0.5-4-0.4-6 0.3-2.2 0.7-11.7 9.7-29.6 28.1z"/>
</svg>