<svg version="1.2" xmlns="http://www.w3.org/2000/svg" viewBox="0 0 175 175" width="28" height="28">
	<title>file</title>
	<style>
		.s0 { opacity: .87;fill: #000000 } 
	</style>
	<path id="Path 0" fill-rule="evenodd" class="s0" d="m98.9 1c3.2 0 4.7 0.6 10.1 6v15c0 14.5-0.1 15.1-2.5 18-1.4 1.6-3.2 3-4 3-1.1 0-1.5 1.2-1.5 10h9.2c8.1-0.1 9.6 0.2 11.3 2 1.9 2 3 2.1 52.5 2l0.3 57.3c0.2 39.7 0 57.6-0.7 58.5-0.9 1-17.7 1.3-85.6 1.3-67.9 0-84.7-0.3-85.7-1.3-0.9-1-1.2-7.6-0.8-51.3l16.5-0.5-0.5-11.5-16-1v-19l16-1 0.5-11.5-16.5-0.5v-19l36.5-0.2c35.4-0.2 36.6-0.3 38.5-2.3 1.7-1.8 3.2-2.1 20.5-2v-4.5c0-3.7-0.4-4.7-2.3-5.6-1.2-0.6-3-2.1-3.9-3.3-1.5-1.8-1.7-4.3-1.6-32.8l2.8-2.9c2.2-2.3 3.7-2.9 6.9-2.9zm-6 21.6c0.1 13.8 0.2 14.5 2.3 15.9 1.3 0.8 3.1 1.5 4 1.5 1 0 2.7-0.9 3.8-2 1.8-1.8 2-3.4 2-15.8 0.1-11.9-0.2-13.9-1.7-15.4-1-1-3-1.8-4.5-1.8-1.5 0-3.4 0.7-4.3 1.6-1.4 1.3-1.6 3.8-1.6 16zm-4.6 61.6c6.1 16.7 9.7 25.3 10.6 25.3 0.9 0 4.6-8.6 10.8-25.3 5.1-13.8 9.1-25.7 8.8-26.2-0.3-0.6-7.8-1-19.5-1-11.6 0-19.1 0.4-19.5 1-0.3 0.5 3.7 12.4 8.8 26.2zm64.7-17.6c-2.5 3.1-7.9 8.6-12 12.3-4.2 3.6-13.7 11.5-21.3 17.6-7.6 6-14.7 12.5-15.8 14.2-1.4 2.4-2.6 3.3-4.7 3.3-1.5 0-3.3-0.5-4-1.2-1-1.1-2.5-1.1-8 0-3.9 0.7-8.6 2.4-11.5 4.2-3.2 2-5.7 4.7-7.6 8.2-1.7 2.9-4.5 6.8-6.3 8.7-1.8 1.9-5.1 4.2-7.3 5.2-3.5 1.6-6.9 1.9-26.3 1.9h-22.2v28h164v-108h-12.6zm-114.9 6.4h28v-12h-28zm32 0c8.9 0 9-0.1 8.4-2.8-0.3-1.5-1.2-4.2-2-6-1.1-2.4-2.1-3.2-3.9-3.2-2.4 0-2.5 0.2-2.5 6zm48 0h23.5c4.6-5.1 7.1-7.8 8.5-9.3l2.5-2.8-30.1 0.1zm-112 0h28v-12h-28zm16 16h28v-12h-28zm32 0h28l-0.5-11.5-27.5-0.6zm58 0c10.2 0 11-0.3 17.3-5.5 3.7-3 6.7-5.7 6.7-6 0-0.3-4.4-0.5-9.8-0.5h-9.8zm-106 16h28v-12h-28zm32 0h28v-12h-28zm32 0c16.3 0 21-0.3 21-0.7 0-0.4-0.8-3-1.9-5.8l-1.9-5-17.1-0.6zm39.1-7.7c-1 2.5-0.9 2.6 0.7 1.8 0.9-0.6 3.1-2.2 4.7-3.5l3-2.6c-5 0-6.6 0.4-6.9 0.8-0.2 0.4-0.9 2-1.5 3.5zm-87.1 23.7h28v-12h-28zm32 0c11.1 0.1 11.8-0.2 15-3.6 1.9-2 4.9-4.3 6.5-5.1 1.7-0.9 4.1-1.9 5.5-2.3 1.4-0.5-3.8-0.8-12.2-0.9l-14.8-0.1zm-48 16h28v-12h-28zm32 0c10 0 13.3-0.6 16-2 2.2-1.1 5.1-3.4 6.5-5.2 1.3-1.8 2.5-3.6 2.5-4 0-0.4-5.6-0.8-12.5-0.8h-12.5zm61-74.9c5.2 0 10.2 0.4 11 0.9 0.9 0.5 1.2 1.5 0.8 2.5-0.6 1.2-2.5 1.5-18.3 1.6l0.5 3.1c0.4 2.7 0.2 3.1-1.5 2.7-1.3-0.2-2.5-1.9-3.5-4.7-1.3-3.8-1.3-4.4 0-5.2 0.8-0.5 5.8-0.9 11-0.9zm40.2 21.9c1 0 1.8 0.6 1.8 1.3 0 0.7-1.3 3.5-2.9 6.2-1.6 2.8-4.6 6.8-6.7 9-2.2 2.1-4.9 4.6-6.2 5.5-1.8 1.2-2.5 1.3-3.5 0.3-0.9-0.9 0.1-2.5 4.8-7 3.3-3.2 7.2-7.9 8.5-10.5 1.5-3 3.1-4.8 4.2-4.8zm10 0c1 0 1.8 0.6 1.8 1.3 0 0.7-1.2 3.7-2.6 6.7-1.4 3.1-4.1 7.7-6 10.3-1.9 2.6-4.1 4.7-4.9 4.7-0.8 0-1.7-0.4-2-1-0.3-0.5 1.3-3.3 3.5-6.2 2.2-2.9 5-7.6 6.2-10.5 1.5-3.7 2.7-5.3 4-5.3zm-18.2 33.4c1.5 0.1 2.5 0.7 2.5 1.7 0 0.8 0.8 2.7 1.8 4.2 0.9 1.5 1.7 3.6 1.7 4.7 0 1.5-1.7 2.9-6 5-3.3 1.7-6.7 3-7.5 3-0.8 0-1.5-0.9-1.5-2 0-1.1-1.1-3.6-2.5-5.7-1.4-2.1-2.5-4.8-2.5-6 0-1.2 0.6-2.6 1.3-2.9 0.6-0.4 3.2-1 5.7-1.4 2.5-0.4 5.6-0.7 7-0.6zm-7.5 9.6l2.5 4c6.9-3.5 6.9-3.5 5.2-6.2-1.3-2.2-2.4-2.8-5.3-2.8-1.9 0-3.9 0.3-4.2 0.5-0.4 0.3 0.4 2.3 1.8 4.5zm-0.9 16c0.8 0 1.9 0.9 2.4 2 0.6 1.1 1.8 2 2.8 2.1 0.9 0 2.5 0.8 3.5 1.7 1 1 1.8 2.3 1.7 3 0 0.7-1.9 3.3-4.2 5.8-2.4 2.5-5.1 4.5-6 4.5-1 0-1.8-0.7-1.8-1.6 0-0.8-1.4-1.9-3.2-2.4-1.8-0.5-3.6-1.7-4-2.5-0.5-0.9-0.9-2-0.9-2.6-0.1-0.5 1.7-3 4.1-5.5 2.3-2.4 4.9-4.5 5.6-4.5zm-4.8 10.4c0.1 0.3 1.7 1.1 3.5 1.6 2.6 0.8 3.5 0.7 5-0.7 1-1 1.8-2.1 1.7-2.5 0-0.4-0.8-0.9-1.7-1.1-1-0.3-2.5-0.7-3.3-1.1-0.9-0.4-2.4 0.1-3.5 1.2-1 1.1-1.8 2.2-1.7 2.6z"/>
</svg>