<svg version="1.2" xmlns="http://www.w3.org/2000/svg" viewBox="0 0 485 485" width="28" height="28">
	<title>file</title>
	<style>
		.s0 { opacity: .95;fill: #000000 } 
	</style>
	<path id="Path 0" fill-rule="evenodd" class="s0" d="m69.5 97.3c9.1 0.2 10.7 0.5 17 3.6 4.7 2.3 9.1 5.6 19.5 16.1v43h41v-43l4.8-5.1c2.6-2.8 7-6.5 9.7-8.2 2.8-1.7 7.6-3.9 10.8-4.9 3.1-1 8.6-1.8 12.2-1.8 3.6 0 9.1 0.8 12.3 1.8 3.1 1 8.1 3.3 11.1 5.2 3 1.9 7.4 5.8 14.1 13.5v42.5h41v-42.5l2.8-3.9c1.5-2.2 5.2-5.8 8.2-8.1 3-2.2 8.6-5.1 12.5-6.4 5.9-2 8.5-2.3 16-1.9 7.6 0.3 10.1 0.9 16 3.7 4.9 2.3 8.9 5.2 19.5 16.1v43h40v-42l6.3-6.6c4.5-4.8 8.2-7.6 13.6-10.2 7.3-3.6 7.9-3.7 18.5-3.7 9.8 0 11.8 0.3 16.6 2.5 3 1.5 7.3 3.9 9.4 5.5 2.2 1.7 5.7 5.1 11.6 12.5v42h30v57h-30v58h30v57h-30v57h-37.5c-32.4 0-37.6-0.2-38-1.5-0.3-0.8-0.5-13.6-0.5-55.5h-39v57h-76v-57h-40v57h-76v-57h-40v57h-76v-57h-29v-57h29v-58h-29v-57h29l-0.1-42.5 3.4-4.5c1.9-2.5 4.9-5.7 6.8-7.1 1.9-1.4 5-3.4 6.9-4.4 1.9-1 5.3-2.4 7.5-3.2 2.5-0.8 7.8-1.2 14-1zm-17.9 20.4c-2.1 1.6-4.2 3.5-4.6 4.3-0.5 0.8-0.7 12.3-0.5 25.5 0.1 13.2 0.3 69.8 0.4 125.8l0.1 101.7 44.5-0.5 0.5-252.5c-5-4.1-8.3-6.2-10.5-7.3-2.5-1.3-6.5-2.1-11-2.4-4.6-0.2-8.4 0.2-11 1.2-2.2 0.8-5.7 2.7-7.9 4.2zm117.4-1c-1.9 1.2-4.3 3-5.2 4-1.6 1.7-1.7 9.6-1.5 127.8l0.2 126h45l0.5-252.5c-5-4.1-8.3-6.2-10.5-7.3-2.5-1.3-6.5-2.1-11-2.4-4.2-0.2-8.4 0.2-10.5 1-1.9 0.7-5.1 2.2-7 3.4zm117.3-1.4c-1.5 0.9-4 2.7-5.6 4.1l-2.7 2.6v253h45v-253c-5-4.1-8.3-6.2-10.5-7.3-2.6-1.3-6.5-2.1-11-2.3-3.9-0.2-8.2 0-9.7 0.5-1.5 0.4-4 1.5-5.5 2.4zm116-0.1c-1.5 0.9-4 2.8-5.6 4.2l-2.7 2.6v253h45v-252.5c-4.3-4.2-8-6.5-11-7.9-4.1-1.9-7.1-2.6-11.5-2.5-3.3 0-7.2 0.4-8.7 0.8-1.5 0.5-4 1.5-5.5 2.3zm-385.3 86.8h14v-27h-14zm90 0h40v-27h-40zm116 0h40v-27h-40zm115 0h40v-27h-40zm116 0h15v-27h-15zm-347 73h40v-58h-40zm116 0h40v-58h-40zm115 0h40v-58h-40zm-321 42h14v-27h-14zm90 0h40v-27h-40zm116 0h40v-27h-40zm115 0h40v-27h-40zm116 0h15v-27h-15zm-384.6-136c1.2-0.1 3.1 0.7 4.4 1.7 1.6 1.2 2.4 2.9 2.5 5.4 0.1 2.5-0.5 4.4-1.8 5.8q-2 2.2-5.5 2.1c-1.9 0-4.3-0.8-5.3-1.8-1-1-1.8-3.2-1.8-5.4-0.1-2.9 0.5-4.1 2.7-5.7 1.5-1.2 3.6-2.1 4.8-2.1zm115.5 0c0.9-0.1 2.8 0.8 4.4 2 2 1.5 2.7 2.8 2.7 5.5 0 2.2-0.8 4.3-2 5.5-1.1 1.1-3.3 2-5 2-1.7 0-3.9-0.9-5-2-1.2-1.2-2-3.4-2.1-5.4-0.1-2.7 0.5-3.9 2.7-5.5 1.5-1.2 3.4-2.1 4.3-2.1zm116.6 0.4c1.6 0.3 3.8 1.6 4.8 2.9 1 1.2 1.8 3.1 1.8 4.2 0 1.1-0.9 3.2-2.1 4.8-1.5 2-2.8 2.7-5.5 2.7-2.2 0-4.3-0.8-5.5-2-1.2-1.2-2-3.4-2.1-5.4-0.1-2.7 0.5-3.9 2.8-5.6 2-1.6 3.6-2 5.8-1.6zm114.2-0.4c0.7 0 2.7 0.7 4.3 1.5 1.8 0.9 3.2 2.5 3.5 4 0.3 1.4 0.2 3.3-0.2 4.3-0.3 0.9-1.3 2.5-2.2 3.5-0.9 1-3 1.8-4.8 1.7-1.9 0-4.1-0.8-5.3-2-1.2-1.2-2-3.4-2.1-5.4-0.1-2.7 0.5-3.9 2.7-5.5 1.5-1.2 3.3-2.1 4.1-2.1zm-346.4 115c2-0.1 3.9 0.7 5.2 2.1 1.3 1.3 1.9 3.3 1.8 5.2-0.1 2-1.1 4.1-2.7 5.5-1.4 1.2-3.4 2.2-4.4 2.2-0.9 0.1-2.9-0.8-4.5-2-2-1.5-2.7-2.8-2.7-5.5 0-2.2 0.8-4.3 2-5.5 1.2-1.2 3.4-2 5.2-2zm115.5 0c1.6-0.1 3.9 0.7 5.2 1.7 1.7 1.3 2.3 2.7 2.3 5.3-0.1 2.4-0.9 4.2-2.6 5.8-1.4 1.2-3.4 2.2-4.4 2.2-0.9 0.1-2.9-0.8-4.5-2-2-1.5-2.7-2.8-2.7-5.5 0-2.2 0.8-4.3 2-5.5 1.1-1.1 3.2-2 4.7-2zm115.8 0c2.6 0 4 0.7 5.6 2.8 1.5 1.9 1.9 3.5 1.5 5.7-0.3 1.6-1.6 3.8-2.9 4.8-1.2 1-3.1 1.8-4.2 1.8-1.1 0-3.2-0.9-4.8-2.1-2-1.5-2.7-2.8-2.7-5.5 0-2.2 0.8-4.3 2-5.5 1.2-1.2 3.3-2 5.5-2zm116 0c2.7 0 4 0.7 5.5 2.8 1.2 1.5 2.1 3.5 2 4.5 0 0.9-1.3 3.1-2.9 4.7-1.6 1.6-3.8 3-4.8 3-1 0.1-3-0.8-4.6-2-2-1.5-2.7-2.8-2.7-5.5 0-2.2 0.8-4.3 2-5.5 1.2-1.2 3.3-2 5.5-2z"/>
</svg>