<svg version="1.2" xmlns="http://www.w3.org/2000/svg" viewBox="0 0 512 512" width="28" height="28">
	<title>file</title>
	<style>
		.s0 { opacity: .99;fill: #000000 } 
	</style>
	<path id="Path 0" fill-rule="evenodd" class="s0" d="m412 0l6.5 5.8 0.5 40.2h17.3c9.4 0 18.7 0.3 20.6 0.7 1.9 0.5 4.5 1.9 5.8 3.3 2.3 2.5 2.4 2.7 2.3 43h19.5c13.5 0 20.3 0.4 22.1 1.2 1.5 0.7 3.3 2.5 4 4 1.2 2.4 1.4 35 1.4 405.8l-6.8 7h-405.2l-7-7v-40h-40l-6-6v-40h-40l-7-7v-201.8c0.1-180.7 0.2-201.9 1.6-204.1 0.9-1.3 2.6-3 3.7-3.7 1.8-1.1 38.4-1.3 406.7-1.4zm-392 118.5c76-76 98-98.1 98-98.3 0-0.1-22-0.2-49-0.2h-49zm189.5-56.5c0 0 30.4-30.4 41.9-42h-83.9c11.6 11.5 42 42 42 42zm133 0c0 0 30.4-30.4 41.9-42h-83.9c11.6 11.5 42 42 42 42zm-318.7 80.5l52.7 52.5 118.5-118.5c-39.9-39.9-51.7-51.5-52-51.5-0.3 0-27.2 26.4-59.8 58.7zm133 0l52.6 52.6 118.5-118.6c-39.9-39.9-51.8-51.5-52.1-51.5-0.4 0-27.3 26.5-59.8 58.8zm133.1 0l52.5 52.5 56.5-56.5-0.5-105zm128.5 269.7l-6.5 5.8h-345v26c159.1 0.5 170.8 0.7 172.7 2 1.2 0.9 2.7 2.5 3.2 3.8 0.6 1.2 1.1 3.6 1.1 5.2 0 2-1 4.1-2.9 6l-3 3h-125.1v27h379v-378h-27v345l-5.9 6h-139.1c-3.9-3.8-5.3-6.2-5.6-7.7-0.4-1.7 0-4 1-6 0.9-2 3-3.9 5.1-4.8 3-1.2 12.4-1.5 64-1.5h60.5v-377c-7.4 0-13.2-0.3-17.6-0.6l-8.1-0.7zm-394.5-136.6c39.9 39.9 52 51.5 52.5 51.5 0.6 0 27.6-26.6 60-59l59-59c-40.3-40.3-52.2-52-52.5-52-0.3 0-27.1 26.6-59.7 59.2zm133 0c39.9 39.9 51.9 51.5 52.5 51.5 0.5 0 27.5-26.5 60-59l59-59c-40.3-40.3-52.3-52-52.5-52-0.3 0-27.2 26.7-59.8 59.3zm-137-24l42.5-42.5-42.5-42.5zm270 24l51.9 52 57.2-56c-0.1-81-0.2-104.5-0.3-104.5-0.2 0-24.7 24.4-54.5 54.2zm-255.5 122.5h104l56.5-56.5c-39.9-39.9-51.8-51.5-52-51.5-0.3 0-24.8 24.3-54.5 54zm133 0h104l56.5-56.5c-40-39.9-51.8-51.5-52-51.5-0.3 0-24.8 24.3-54.5 54zm-147.5-14.5l42-42c-31.8-32.1-41.2-41.5-41.5-41.5-0.3 0-0.5 18.8-0.5 41.8zm280.5 14.5h98.5c0-76-0.2-98-0.3-98-0.1 0-22.3 22-49.2 49zm-18.8 46.9c1.4 0.3 3.6 1.8 4.9 3.3 1.5 1.8 2.4 4 2.4 6.3 0 2.5-0.9 4.3-3 6.5-2.2 2.3-3.8 3-6.7 3-2.1 0-4.9-0.7-6.1-1.5-1.2-0.9-2.8-3.2-3.4-5.3-1-3.2-0.9-4.2 0.8-7.2 1.2-2.3 3.2-3.9 5.2-4.6 1.9-0.6 4.5-0.8 5.9-0.5z"/>
</svg>