<svg version="1.2" xmlns="http://www.w3.org/2000/svg" viewBox="0 0 397 397" width="28" height="28">
	<title>file</title>
	<style>
		.s0 { opacity: .85;fill: #020202 } 
	</style>
	<path id="Path 0" fill-rule="evenodd" class="s0" d="m223.7 81.4c93.6 0.1 170.5 0.5 171 0.9 0.4 0.5 0.9 11.6 1.1 24.8 0.1 14.5-0.2 24.7-0.8 25.9-0.9 1.9-2 2-18 2-15.4 0-17 0.2-17.3 1.7-0.2 1-0.3 9.2-0.2 34.8l16 0.3c15.2 0.2 16.1 0.3 17.8 2.5 1.6 2 1.8 4.5 1.7 24.9 0 13.1-0.4 23.7-1 24.8-1 1.9-2 2-21 2-11 0-20.7 0.2-21.5 0.5-1.3 0.4-1.5 3.3-1.5 17.5 0 12.5 0.3 17.2 1.3 17.7 0.6 0.4 9.1 0.9 18.7 1.1 14.9 0.3 17.7 0.6 18.8 2 0.9 1.3 1.2 7.8 1.2 25.4 0 20.3-0.2 24-1.6 25.3-1.4 1.3-21.9 1.5-172.5 1.5-150.6 0-171.1-0.2-172.4-1.5-1.2-1.2-1.5-5.2-1.5-43.5l-8.7-0.2c-4.9-0.1-13.1-0.2-18.4-0.2-7-0.1-10-0.5-11.3-1.6-1.5-1.3-1.7-4.1-1.6-25.3 0-22.3 0.1-23.8 2-25.7 1.9-1.9 3.3-2 42-2l0.3-17.3c0.1-9.4 0.1-17.5 0-17.9-0.2-0.5-7.3-0.8-15.8-0.8-14.2 0-15.7-0.2-17.5-2-1.9-1.9-2-3.3-2-25.8 0-17.3 0.3-24 1.2-24.9 0.8-0.9 5.2-1.3 14.8-1.3 7.4 0 15.2-0.4 21-1.5v-20.5c0-11.3 0.4-21 0.8-21.6 0.5-0.6 1.7-1.4 2.8-1.6 1-0.3 78.5-0.5 172.1-0.4zm-166.9 27.2l0.2 17.4c8.1 0.8 28.7 1 51 0.8l40.5-0.3c0.4-24.8 0.3-33 0-34.3l-0.5-2.2c-68.6 0.1-89.2 0.4-89.9 0.7-1.3 0.4-1.5 3.4-1.3 17.9zm101.5 0.9l0.2 17h45c0.4-29.4 0.1-34.4-0.8-35.3-0.9-1-6.3-1.3-22.5-1.2-16.4 0-21.3 0.3-21.7 1.3-0.2 0.7-0.3 8.9-0.2 18.2zm54.7 17.5c54.6 0 71.1-0.4 71.7-0.8 1-0.5 1.2-5.1 1-18.2l-0.2-17.5-72.5-0.5zm81.9-18.4c0.1 17.1 0.2 17.4 2.4 17.9 1.2 0.3 21.8 0.4 45.7 0.3l43.5-0.3v-36c-69.8-0.4-90.5-0.2-91 0.1-0.4 0.4-0.7 8.5-0.6 18zm-274 27.9l-0.4 35h91c0.4-27.9 0.1-34.4-0.5-35-0.7-0.7-16.2-1-42.3-1-22.6 0-42.7 0.2-44.5 0.5zm100.1-0.5l0.5 35.5h128c0.4-27.9 0.2-34.4-0.5-35-0.7-0.7-22.7-1-61.8-1-33.3 0-61.9 0.1-63.4 0.2zm136.8 18.2c0.2 16.5 0.2 16.8 2.4 17.4 1.3 0.2 21.9 0.4 45.8 0.2l43.5-0.3v-36c-73.1 0-90 0.3-90.7 0.9-0.9 0.7-1.2 5.8-1 17.8zm-202.2 44.8c0.2 8.6 0.4 16.1 0.4 16.8 0 1 9.6 1.2 45.2 1l45.3-0.3v-35c-79.6-0.4-89.5-0.2-90.3 0.8-0.6 0.8-0.9 7-0.6 16.7zm100.7 1.1l0.2 16.4h45v-35c-39.9-0.5-44.6-0.2-45 0.8-0.2 0.7-0.3 8.7-0.2 17.8zm55 0l0.2 16.4 73.5 0.5-0.5-35.5c-65.3-0.4-72.6-0.2-73 0.8-0.2 0.7-0.3 8.7-0.2 17.8zm82.5-0.6c0.2 8.8 0.6 16.4 1 16.8 0.4 0.4 20.7 0.6 45.2 0.5l44.5-0.3 0.2-35.5c-79.6 0-89.8 0.3-90.4 1.3-0.4 0.7-0.6 8.4-0.5 17.2zm-283 44.4c0.1 9.2 0.5 17.1 1 17.7 0.5 0.7 14.3 0.9 45.7 0.5l45-0.6c0.4-29.7 0.2-34.2-0.8-34.7-0.7-0.4-21.1-0.8-45.3-0.8-24.2 0-44.5 0.3-44.9 0.7-0.5 0.4-0.8 8.1-0.7 17.2zm101.2 0.7l0.5 16.9 127.5 0.5v-34.5c-9.7-1.1-37.9-1.5-69-1.5-31.1 0-57.2 0.4-58 0.9-1.1 0.6-1.3 3.7-1 17.7zm138-17.6l0.5 34.5h90v-35c-65.1-0.1-85.5 0-87.3 0.2zm39 45l0.5 35.5h91v-36c-14.7 0-35.3 0.1-55.2 0.2zm-238 36l91.5-0.5 0.2-35.5h-91.7zm101.5-0.5c38.7 0.5 44.2 0.2 44.7-0.7 0.4-0.7 0.8-6.7 0.8-13.3 0-6.6-0.3-14.1-0.8-16.7l-0.7-4.8h-44.6zm54.5 0.5l72.5-0.5 0.3-35.5h-72.8z"/>
</svg>