<svg width="4" height="16" viewBox="0 0 4 16" fill="none" xmlns="http://www.w3.org/2000/svg">
<path d="M0.333313 13.8333C0.333313 14.75 1.08331 15.5 1.99998 15.5C2.91665 15.5 3.66665 14.75 3.66665 13.8333C3.66665 12.9167 2.91665 12.1667 1.99998 12.1667C1.08331 12.1667 0.333313 12.9167 0.333313 13.8333Z" fill="black"/>
<path d="M0.333313 2.16667C0.333313 3.08333 1.08331 3.83333 1.99998 3.83333C2.91665 3.83333 3.66665 3.08333 3.66665 2.16667C3.66665 1.25 2.91665 0.5 1.99998 0.5C1.08331 0.5 0.333313 1.25 0.333313 2.16667Z" fill="black"/>
<path d="M0.333313 8C0.333313 8.91667 1.08331 9.66667 1.99998 9.66667C2.91665 9.66667 3.66665 8.91667 3.66665 8C3.66665 7.08333 2.91665 6.33333 1.99998 6.33333C1.08331 6.33333 0.333313 7.08333 0.333313 8Z" fill="black"/>
</svg>
