<svg width="21" height="21" viewBox="0 0 21 21" fill="none" xmlns="http://www.w3.org/2000/svg">
<path d="M9 19.875H12M0.75 8.43C0.750808 7.00221 1.0913 5.59511 1.74336 4.32491C2.39541 3.05471 3.3403 1.95788 4.5 1.125M20.25 8.43C20.2492 7.00221 19.9088 5.59511 19.2567 4.32491C18.6047 3.05471 17.6597 1.95788 16.5 1.125M16.5 8.625C16.5 7.03369 15.8679 5.50758 14.7426 4.38235C13.6174 3.25714 12.0913 2.625 10.5 2.625C8.90869 2.625 7.38258 3.25714 6.25735 4.38235C5.13214 5.50758 4.5 7.03369 4.5 8.625V13.875C4.5 14.4717 4.26294 15.0441 3.84099 15.4661C3.41904 15.888 2.84673 16.125 2.25 16.125H18.75C18.1533 16.125 17.5809 15.888 17.1589 15.4661C16.737 15.0441 16.5 14.4717 16.5 13.875V8.625Z" stroke="#333333" stroke-linecap="round" stroke-linejoin="round"/>
</svg>
