<svg version="1.2" xmlns="http://www.w3.org/2000/svg" viewBox="0 0 377 377" width="24" height="24">
	<title>file</title>
	<style>
		.s0 { opacity: .96;fill: #000000 } 
	</style>
	<path id="Path 0" fill-rule="evenodd" class="s0" d="m197.5 2.1c100.6-0.1 119.8 0.1 124 1.3 2.8 0.8 7 2.9 9.4 4.8 2.4 1.8 5.8 5.8 7.5 8.8 2.9 5.2 3.1 6.2 4.1 32.5l10.4 0.5c9.6 0.5 10.5 0.7 12.3 3 1.6 2 1.8 3.1 1.1 5.5-0.5 1.7-2 3.6-3.4 4.2-1.4 0.7-6.3 1.3-20.9 1.3v9.8c0 6.5-0.5 11.3-1.7 14.7-1.1 3.3-3.4 6.7-6.7 10.1-3.4 3.3-6.8 5.6-10.1 6.7-4.6 1.6-14.9 1.7-247 1.7l-5-2.4c-2.8-1.3-6.7-4.1-8.7-6.2-2-2.2-4.7-6.2-5.9-8.9-1.7-3.8-2.4-7.7-3.4-27.5h-9c-7.2 0-9.6 0.4-12.3 2-1.7 1.1-4 3.2-5 4.7-1.5 2.4-1.7 6-2 27.8-0.2 15.2 0 26.6 0.7 29 0.5 2.2 2.3 5.2 3.8 6.8 2.5 2.4 12.4 5.4 79.3 24.2 42.1 11.9 77.8 22.1 79.5 22.7 1.6 0.7 5 3.1 7.4 5.3 2.4 2.2 5.5 6.3 6.7 9 2.1 4.4 2.4 6.5 2.4 31l7.2 0.8c4.9 0.5 8.7 1.5 11.6 3.2 2.6 1.5 5.2 4.3 9.7 12l0.3 58.5c0.1 36.8-0.2 59.9-0.8 62.3-0.5 2-2.5 5.3-4.2 7.4-1.8 2-5.1 4.4-7.3 5.4-3.4 1.6-6.8 1.9-22.8 1.9-14.7 0-19.5-0.3-22.4-1.6-2.1-0.8-5.1-2.7-6.7-4.2-1.6-1.5-3.7-4.5-4.7-6.7-1.7-3.8-1.9-7.7-1.9-63 0-54.7 0.2-59.3 1.8-63 1-2.2 3.6-5.5 5.8-7.2 2.2-1.9 5.9-3.7 8.7-4.3 2.6-0.5 6.3-1 11.7-1v-12.2c0-10-0.3-12.8-1.8-15-0.9-1.5-2.6-3.4-3.7-4.2-1.1-0.8-14.2-4.9-29-9-14.8-4.2-49.5-14-77-21.8-27.5-7.7-51.6-14.8-53.5-15.8-1.9-1-4.9-3.3-6.7-5.2-1.8-1.8-4.2-5.5-5.5-8.3-2.2-4.9-2.3-5.8-2.3-34.5 0-27.8 0.1-29.8 2.1-34 1.1-2.5 3.4-6 5-7.9 1.6-1.8 4.9-4.5 7.4-6 4-2.3 5.8-2.6 27.5-3.3l0.5-11.6c0.5-9.9 1-12.6 3.2-17.2 1.5-3.2 4.6-7.3 7.5-9.8 2.6-2.4 6.8-4.9 9.3-5.7 3.7-1.1 25.9-1.4 123.5-1.4zm-126.2 19.8c-1.2 1.7-2.6 5-2.9 7.4-0.3 2.3-0.4 15.2-0.2 28.7 0.3 22.9 0.4 24.7 2.4 28 1.2 1.9 3.8 4.3 5.8 5.3 3.4 1.6 11.3 1.7 122.4 1.7 116.9 0 118.8 0 122-2 1.7-1.1 4.1-3.5 5.2-5.2 1.9-3.1 2-5.1 2-31.3 0.1-27.6 0-28.1-2.2-31.5-1.3-1.9-3.9-4.3-5.8-5.2-3.3-1.7-11.1-1.8-121.5-1.8-95.7 0.1-118.6 0.3-121.4 1.4-1.9 0.7-4.5 2.7-5.8 4.5zm107.4 220c-1.7 1.5-1.8 5.2-1.7 58.9 0 55.8 0 57.2 2 59.2 1.8 1.8 3.3 2 19.5 2h17.5c4-5.4 4.1-6.8 4.1-61.5 0-54.1-0.1-56.1-2-58.5-1.9-2.5-2.1-2.5-18.3-2.6-8.9 0-17 0.1-17.8 0.4-0.8 0.2-2.3 1.2-3.3 2.1z"/>
</svg>