<svg version="1.2" xmlns="http://www.w3.org/2000/svg" viewBox="0 0 450 450" width="28" height="28">
	<title>file</title>
	<style>
		.s0 { opacity: .97;fill: #000000 } 
	</style>
	<path id="Path 0" fill-rule="evenodd" class="s0" d="m230 1.5c10.2 0.2 23 1.1 28.5 2 5.5 0.8 15.4 2.9 22 4.6 6.6 1.7 16.3 4.6 21.5 6.6 5.2 1.9 14.9 6.1 21.5 9.3 6.6 3.2 16.3 8.6 21.5 12.1 5.2 3.4 13.1 8.9 17.5 12.2 4.4 3.3 13.7 11.7 20.6 18.6 6.9 6.9 15.7 16.9 19.6 22.1 3.9 5.2 9.7 13.6 12.8 18.5 3.1 4.9 8.1 13.9 11 20 2.9 6.1 6.9 15.3 8.8 20.5 2 5.2 4.9 14.9 6.6 21.5 1.6 6.6 3.8 16.9 4.8 23 1.3 8.1 1.7 16.7 1.7 32.5 0 15.8-0.4 24.4-1.7 32.5-1 6.1-3.2 16.4-4.8 23-1.7 6.6-4.6 16.3-6.6 21.5-1.9 5.2-6.1 14.9-9.3 21.5-3.3 6.6-9 16.7-12.8 22.5-3.7 5.8-10.4 15-14.9 20.5-4.4 5.5-12.6 14.4-18.2 19.8-5.5 5.3-14.3 12.8-19.4 16.6-5 3.8-13.3 9.5-18.2 12.6-4.9 3.1-13.9 8.1-20 11-6.1 2.9-15.3 6.9-20.5 8.8-5.2 1.9-14 4.7-19.5 6.1-5.5 1.5-15.4 3.5-22 4.6-6.6 1.1-18.8 2.3-27 2.6-9 0.4-20.2 0.2-28-0.5-7.2-0.7-17.5-2.1-23-3.3-5.5-1.1-15.2-3.5-21.5-5.3-6.3-1.8-16.4-5.4-22.5-8-6.1-2.6-14.8-6.7-19.5-9.3-4.7-2.5-13-7.6-18.5-11.3-5.5-3.7-14.3-10.3-19.5-14.7-5.2-4.3-13.5-12.1-18.4-17.3-5-5.2-12.4-14-16.5-19.6-4.2-5.6-10.4-14.8-13.8-20.5-3.5-5.6-8.6-15.5-11.4-21.8-2.9-6.3-6.9-16.7-8.9-23-2.1-6.3-5-17.4-6.4-24.5-1.4-7.1-3-17.9-3.6-24-0.5-6.1-1-15.3-1-20.5 0-5.2 0.5-14.4 1-20.5 0.6-6.1 2-15.9 3.1-22 1.2-6.1 3.6-15.9 5.5-22 1.8-6.1 5.3-15.9 7.9-22 2.5-6.1 6.6-14.6 9-19 2.4-4.4 7.1-12.3 10.6-17.5 3.4-5.2 8.7-12.7 11.7-16.5 3-3.8 10.9-12.4 17.6-19 6.7-6.6 16.9-15.6 22.7-20 5.9-4.4 15.4-10.8 21-14.2 5.7-3.5 15.6-8.6 21.9-11.4 6.3-2.8 16-6.6 21.5-8.4 5.5-1.8 13.8-4.2 18.5-5.3 4.7-1.1 11.4-2.5 15-3.1 3.6-0.7 10.3-1.6 15-2.1 4.7-0.5 16.8-0.7 27-0.5zm-50 20.5c-5.2 1.1-14.9 3.9-21.5 6.1-6.6 2.2-17.4 6.6-24 9.8-6.6 3.2-16.9 9.1-23 13.1-6.1 4-13.3 9.1-16 11.3-2.8 2.3-9.4 8.4-14.8 13.7-5.5 5.2-12.7 12.9-16.2 17-3.4 4.1-9.2 12-12.9 17.5-3.7 5.5-9.6 15.8-13.1 23-3.5 7.2-8.3 18.6-10.6 25.5-2.3 6.9-5.2 17.7-6.5 24-1.2 6.3-2.8 16.9-3.5 23.5-0.7 7.3-0.9 17.7-0.6 26.5 0.4 8 1.4 18.8 2.2 24 0.9 5.2 2.7 13.8 4 19 1.3 5.2 3.8 13.6 5.5 18.5 1.8 4.9 5.8 14.4 9 21 3.2 6.6 8.9 16.7 12.7 22.5 3.8 5.8 9.9 14 13.4 18.4 3.5 4.3 6.8 8.1 7.4 8.4 0.5 0.2 8.1-6.7 16.8-15.4l15.7-15.9c0-40.4 0.3-46.1 1.4-48.3 1-1.9 4.9-4.6 13-9 11-5.9 11.6-6.3 11.2-9-0.3-1.5-0.8-7-1.1-12.2-0.4-5.2-0.1-15.1 0.5-22 0.6-6.9 2-16.6 3.1-21.5 1-4.9 1.9-9.3 1.9-9.8 0-0.4-1.9-0.6-4.2-0.5l-4.2 0.3c-11.3 34.1-15.1 44.5-15.8 45.1-0.7 0.6-10.3 8.3-21.3 17.1-11 8.8-21 16.3-22.3 16.6-1.2 0.4-3.4 0.1-4.9-0.6-1.5-0.6-3.4-2.6-4.1-4.2-0.8-1.6-1.2-3.9-0.9-5 0.3-1.1 9.7-9.3 20.9-18.3l20.3-16.2c12.3-36.8 16.7-48.3 17.7-49.3 1.5-1.4 3.7-1.7 13.3-1.7h11.5c6-11.2 10.5-18 13.9-22.3 3.3-4.2 7.5-8.7 9.1-10 1.7-1.2 3-2.6 3-3.2 0-0.6-2.8-7.9-6.2-16.4l-6.3-15.5c-19.8-13.2-23.8-16.5-24.5-18.4-0.8-2-0.7-3.5 0.2-5.6 0.7-1.6 2.1-3.3 3-3.7 1-0.5 3-0.9 4.5-0.9 1.8 0 7.3 3.1 15.3 8.4 6.9 4.6 13.2 9.2 14.2 10.2 0.9 1 4.4 9 7.7 17.6l6.1 15.8c4.8-2 6.6-4.1 7.9-6.8 1.2-2.3 3.9-6.1 6-8.5l4-4.2c-3.8-15.5-5.2-20.3-5.6-20.6-0.4-0.4-5.6-3.8-11.6-7.8-7.3-4.8-11-8-11.7-9.9-0.8-2-0.7-3.5 0.2-5.6 0.7-1.6 2.1-3.3 3-3.7 1-0.5 3-0.9 4.5-0.9 1.8 0 7.2 2.9 14.8 8 6.6 4.3 13 8.9 14.2 10.2 1.5 1.6 2.9 5.5 4.4 12.3l2.1 10h23.9c1.4-5.4 2.3-9.3 2.9-12 0.6-2.8 1.5-6.1 2-7.5 0.6-1.6 5.8-5.8 14.7-11.7 9.6-6.5 14.7-9.3 16.8-9.3 1.8 0 3.9 0.8 5.2 2.2 1.3 1.4 2.3 3.6 2.3 5.3 0 1.6-0.4 3.5-0.8 4.2-0.4 0.7-5.9 4.7-12.2 9l-11.5 7.8-4.5 19.5c6.4 7.4 9.1 11.4 10.1 13.7 1.3 3 2.8 4.6 4.6 5.2l2.8 0.8 13-32.9c23.8-16 28.9-18.8 31-18.8 1.8 0 3.9 0.8 5.2 2.2 1.4 1.4 2.3 3.6 2.3 5.5 0 2.2-0.8 4-2.3 5.3-1.2 1.1-6.9 5.2-12.7 9.2l-10.4 7.3c-11.7 29.1-12.3 31.2-11 32.5 1.3 1.3 6.2-3.3 41.4-38.5 22-22 39.9-40.5 39.7-41-0.2-0.6-4.2-4.1-8.8-7.8-4.6-3.8-12.5-9.6-17.4-12.9-4.9-3.3-14.9-8.8-22-12.3-7.1-3.5-17.5-7.9-23-9.8-5.5-1.9-14.9-4.6-21-6-6.1-1.5-16.9-3.3-24-4.2-7.1-0.8-18.4-1.5-25-1.4-6.6 0.1-16.9 0.7-23 1.4-6.1 0.8-15.3 2.3-20.5 3.5zm116.1 142.5c3.7 4.6 6.5 9.3 8.6 13.2l3.8 7.3c22.2-0.1 23.2 0.1 25.1 2.2 1.3 1.4 5.2 11.6 9.7 25.3l7.6 23c26.8 21.5 36.1 29.2 37.9 30.9 2.1 2 3.2 4 3.2 5.8 0 1.6-0.3 3.5-0.7 4.4-0.5 0.9-2 2.3-3.5 3-1.6 0.8-3.8 1.1-5 0.8-1.3-0.4-12-8.4-23.8-17.9l-21.5-17.2-14.5-44.3h-8.5c2.7 12 4 19.8 4.6 25 0.6 5.2 0.9 17.3 0.8 26.9l-0.4 17.4c15.7 8.7 21.3 12.1 22.4 13.2 2.1 1.9 2.2 2.8 2.2 26v24c13.9 14.1 15.9 16.7 15.9 18.7 0 1.6-0.3 3.5-0.7 4.4-0.5 0.9-2 2.3-3.5 3-1.6 0.8-3.8 1.2-5 0.9-1.3-0.3-6.8-5-12.3-10.5l-10-10-0.5-47c-9.3-4.6-12.1-5.9-12.3-5.8-0.2 0.2-1.1 3-2.1 6.3-1 3.3-3.7 10-6 15-2.3 4.9-6.6 12.5-9.6 16.9-3 4.3-9.1 11.3-13.5 15.5-4.4 4.2-10.7 9.4-14 11.6-3.3 2.1-8.9 5.3-12.5 7.1-3.6 1.7-9.4 4.1-13 5.3-3.6 1.2-9.9 2.6-14 3.2-5.3 0.7-9.5 0.7-14.5-0.1-3.8-0.6-10.4-2.2-14.5-3.6-4.1-1.4-10.6-4.2-14.5-6.3-3.8-2-9.7-5.7-13-8.1-3.3-2.4-9.2-7.5-13-11.4-3.9-3.9-9.3-10.5-12.1-14.6l-5.1-7.5-60.8 60.6c7 6.4 12.6 10.9 17 14.2 4.4 3.2 12.1 8.4 17 11.5 4.9 3 13.1 7.5 18 9.8 4.9 2.4 13.5 5.9 19 7.9 5.5 2 14.5 4.7 20 6.1 5.5 1.4 14.3 3.2 19.5 4 5.2 0.8 15.3 1.7 22.5 2 7.9 0.4 18.3 0.2 26.5-0.6 7.4-0.7 18.4-2.2 24.5-3.5 6.1-1.2 16.4-4.1 23-6.3 6.6-2.1 16.7-6.2 22.5-8.9 5.8-2.7 14.8-7.6 20-10.8 5.2-3.1 13.1-8.5 17.5-11.8 4.4-3.4 13.1-11.1 19.3-17.2 6.3-6 14.1-14.5 17.5-18.8 3.4-4.3 8.8-11.8 12-16.5 3.2-4.8 8.7-14.6 12.2-21.7 3.5-7.1 8.3-18.6 10.6-25.5 2.3-6.9 5.2-17.5 6.4-23.5 1.3-6.1 2.8-17.1 3.5-24.5 0.8-8.2 1-18.6 0.6-26.5-0.3-7.2-1.2-17.3-2-22.5-0.8-5.2-2.6-14-4-19.5-1.4-5.5-3.9-14.1-5.6-19-1.8-5-5.8-14.4-9-21-3.2-6.6-9.4-17.4-13.8-24-4.4-6.6-10.7-15.3-14.1-19.3-3.4-3.9-6.4-7.2-6.9-7.2-0.4 0-18.8 18.1-40.9 40.2zm-91.5-27.2c-1.8 2.5-1.9 3-0.6 3.8 0.8 0.5 4 1.4 7 2.1 3 0.7 9.3 1.2 14 1.2 4.7-0.1 11.2-0.8 14.5-1.7 3.3-0.9 6.2-1.9 6.5-2.2 0.3-0.3-1.1-2.1-3-4.1-1.9-2-5.3-4.4-7.5-5.5-2.7-1.2-6.3-1.8-11.1-1.8-5.8 0-8.1 0.4-12.4 2.7-2.9 1.5-6.2 4-7.4 5.5zm-19.4 19.2c-3.1 1.7-8.3 5.5-11.5 8.5-3.3 3.1-7.4 7.6-9.2 10-1.8 2.5-5.1 8.1-7.3 12.5-2.2 4.4-5.1 11.6-6.5 16-1.4 4.4-3.2 12.1-4.1 17-0.8 5-1.8 13.8-2.2 19.5-0.4 6.2-0.2 15.1 0.5 21.5 0.7 6.1 1.9 14.2 2.8 18 0.8 3.9 1.7 7.3 1.9 7.5 0.3 0.3 15.3-14.3 33.4-32.5l33-33v-61.5c-7.4-0.9-13-2.4-17.3-3.9l-7.8-2.7zm53.5 2.7l-6.8 1.4v45c31.8-31.8 40.9-41.5 40.7-42-0.1-0.6-3.1-2.9-6.5-5.3-3.8-2.6-7.2-4.2-8.9-4.1-1.5 0-4.8 0.9-7.3 1.9-2.4 1-7.5 2.4-11.2 3.1zm-7.2 69.4c0.3 94.9 0.8 122.7 1.2 122.9 0.4 0.2 4.3-0.8 8.8-2.3 4.4-1.4 11.5-4.7 15.9-7.1 4.8-2.8 11.1-7.6 16.1-12.5 4.5-4.4 10.4-11.4 13.1-15.5 2.7-4.2 6.4-11.1 8.2-15.5 1.9-4.4 4.2-11.2 5.2-15 0.9-3.9 2.2-10.5 2.8-14.8 0.6-4.2 1.1-13.9 1.1-21.5 0-7.5-0.7-18.2-1.5-23.7-0.8-5.5-2.4-13.4-3.5-17.5-1.2-4.2-4-11.6-6.4-16.5-2.3-5-5.1-10.1-6.2-11.3l-1.9-2.3zm-75 75.5c3.9 7.3 6.9 11.9 9.1 15 2.3 3 7.3 8.4 11.2 12 3.8 3.6 10.1 8.3 13.8 10.6 3.8 2.2 9.4 5 12.4 6.2 3 1.1 7.2 2.6 9.3 3.1l3.7 1.1c0-82.9-0.1-107-0.2-107-0.2 0-13.6 13.3-29.8 29.5zm-36.5-10.5v24l17.2-17c-3.1-10.1-4.4-13.1-4.8-13.2-0.5-0.1-3.5 1.3-6.6 3z"/>
</svg>