<svg version="1.2" xmlns="http://www.w3.org/2000/svg" viewBox="0 0 359 359" width="24" height="24">
	<title>file</title>
	<style>
		.s0 { opacity: .95;fill: #000000 } 
	</style>
	<path id="Path 0" fill-rule="evenodd" class="s0" d="m218 4.3c21.9 0.2 25.9 0.4 28 1.9 1.4 0.9 3.3 3.4 4.2 5.5 1.3 2.9 1.8 8.3 2.3 22.8 0.4 13.3 0.3 20.4-0.5 23.5-0.7 2.5-2.1 5.7-3.1 7.3-1.7 2.4-1.9 4.7-1.9 24.2 0 13.7 0.4 21.5 1 21.5 0.6 0 1.7 1.3 2.5 3 1.2 2.5 1.5 8.8 1.5 37 0 21.7-0.4 35-1.1 36.8-0.6 1.5-2 3.8-3.2 5-1.2 1.3-3.6 3.1-5.2 4-2.3 1.3-6.7 1.8-34 2.7l-0.5 72c-0.5 66.1-0.6 72.3-2.2 75.3-1 1.7-3.5 4.4-5.5 6-3.6 2.7-3.8 2.7-21.2 3-16 0.4-18 0.2-21.6-1.6-2.2-1.1-4.8-2.8-5.7-3.8-0.9-1.1-2.4-3.6-3.2-5.6-1.4-3.4-1.6-14.4-1.6-181.3l-16.7-5.3c-9.3-2.9-17.6-6-18.7-7-1-0.9-2.5-3.2-3.2-4.9-0.9-2.2-1.4-7.4-1.4-15.3 0-8.4 0.4-13 1.5-15.5 0.8-1.9 3-4.4 4.8-5.5 3.1-1.9 5-2 94.7-2v-38l-93.2-0.5-3.2-3.5c-2.7-2.8-3.5-4.7-4.1-9.5-0.4-3.3-0.6-9.8-0.3-14.5 0.3-5.2 1.1-9.8 2.1-11.7 0.9-1.8 2.9-3.9 4.5-4.7 1.5-0.8 17.5-5.3 35.7-10.1 18.2-4.9 35.3-9.4 38-10.1 3.6-0.9 12.2-1.2 30.5-1.1zm-56.5 23.1c-17.1 4.6-33 8.8-35.3 9.5l-4.4 1.2 0.2 16.4c59.3 1.2 85.4 1.5 96.3 1.5h19.7v-37l-45.5 0.2zm61.5 80.5h10v-38h-10zm-101 32.5c25.8 7.8 34.2 10.7 35.3 11.5 1.2 0.9 2.7 3 3.4 4.8 1 2.6 1.3 21.2 1.3 93 0 71.1 0.2 90 1.2 91 0.9 0.9 5.2 1.3 14.3 1.3 9.4 0 13.3-0.3 14.2-1.3 0.9-0.9 1.3-18.9 1.5-72.3 0.3-63.8 0.5-71.3 2-74 0.9-1.6 2.7-4 4-5.2 1.2-1.2 4-2.9 6.1-3.7 2.7-1.2 7.3-1.6 17.7-1.6 13.7 0 14 0 14.5-2.2 0.3-1.3 0.4-15.1 0.3-30.8l-0.3-28.5-115.5-0.5z"/>
</svg>